<svg xmlns="http://www.w3.org/2000/svg" width="16" height="16" viewBox="0 0 16 16">
    <g fill="none" fill-rule="evenodd">
        <g fill="currentColor" fill-rule="nonzero">
            <g>
                <g>
                    <path d="M7.173 1.474c.368-.632 1.286-.632 1.654 0l7.044 12.105c.367.631-.092 1.421-.827 1.421H.956c-.735 0-1.194-.79-.827-1.42zM8 11c-.552 0-1 .448-1 1 0 .553.448 1 1 1s1-.447 1-1c0-.552-.448-1-1-1zm1-6H7v4h2V5z" transform="translate(-1714 -341) translate(30 328) translate(1684 13)"/>
                </g>
            </g>
        </g>
    </g>
</svg>
