<svg width="100%" height="100%" viewBox="0 0 25 25" fill="currentColor" xmlns="http://www.w3.org/2000/svg">
<path d="M24.2852 3.41773C23.9174 3.04932 23.3207 3.04869 22.9529 3.41617L11.6495 14.6897L7.57131 10.2604C7.21891 9.87784 6.62311 9.85303 6.23996 10.2054C5.8571 10.5578 5.83259 11.1539 6.18498 11.5367L10.9275 16.6872C11.1011 16.8759 11.3442 16.9856 11.6005 16.9909C11.6074 16.9912 11.614 16.9912 11.6206 16.9912C11.8697 16.9912 12.1093 16.8922 12.2858 16.7164L24.2833 4.7503C24.652 4.38287 24.6527 3.78614 24.2852 3.41773Z" fill="currentColor"/>
<path d="M24.0578 11.5578C23.5374 11.5578 23.1156 11.9795 23.1156 12.5C23.1156 18.3537 18.3537 23.1156 12.5 23.1156C6.64668 23.1156 1.88442 18.3537 1.88442 12.5C1.88442 6.64668 6.64668 1.88442 12.5 1.88442C13.0204 1.88442 13.4422 1.46265 13.4422 0.942236C13.4422 0.421777 13.0204 0 12.5 0C5.60742 0 0 5.60742 0 12.5C0 19.3923 5.60742 25 12.5 25C19.3923 25 25 19.3923 25 12.5C25 11.9796 24.5782 11.5578 24.0578 11.5578Z" fill="currentColor"/>
</svg>
