<svg xmlns="http://www.w3.org/2000/svg" width="16" height="16" viewBox="0 0 16 16">
    <g fill="none" fill-rule="evenodd">
        <g fill="#D04A02" fill-rule="nonzero">
            <g>
                <g>
                    <path d="M8 0c2.048 0 4.095.781 5.657 2.343 3.124 3.124 3.124 8.19 0 11.314C12.095 15.219 10.048 16 8 16c-2.047 0-4.095-.781-5.657-2.343-3.124-3.124-3.124-8.19 0-11.314C3.905.781 5.953 0 8 0zm0 1c-1.87 0-3.628.728-4.95 2.05-2.729 2.73-2.729 7.171 0 9.9C4.372 14.272 6.13 15 8 15s3.628-.728 4.95-2.05c2.729-2.729 2.729-7.17 0-9.9C11.628 1.728 9.87 1 8 1zm.5 2.5v4h4v1h-4v4h-1v-4h-4v-1h4v-4h1z" transform="translate(-1736 -352) translate(31 339) translate(1705 13)"/>
                </g>
            </g>
        </g>
    </g>
</svg>
