<svg xmlns="http://www.w3.org/2000/svg" width="16" height="16" viewBox="0 0 16 16">
    <g fill="none" fill-rule="evenodd">
        <g fill="currentColor" fill-rule="nonzero">
            <g>
                <path d="M14 5.031l-.175 8.845c-.012.59-.26 1.121-.651 1.505-.392.383-.928.619-1.518.619h-7.23c-.146 0-.29-.014-.43-.043-.279-.056-.539-.165-.768-.318-.114-.076-.22-.162-.319-.258-.391-.384-.638-.915-.65-1.505L2 5.03h12zM10.5 0c.552 0 1 .448 1 1h3c.553 0 1 .449 1 1.001 0 .552-.447 1-1 1h-13c-.553 0-1-.448-1-1s.447-1 1-1h3C4.5.448 4.947 0 5.5 0z" transform="translate(-1824 -361) translate(1824 361)"/>
            </g>
        </g>
    </g>
</svg>
