<svg xmlns="http://www.w3.org/2000/svg" width="100%" height="100%" viewBox="0 0 84.47 122.88"><path d="M68.19 79.53H42.53c.28 7.24 2.22 12.58 5.87 16.03 3.65 3.45 9.68 5.19 18.05 5.19 5.44 0 10.27-.81 14.48-2.47l3.54 22.12c-7.3 1.66-14.51 2.47-21.62 2.47-14.82 0-26.61-3.85-35.43-11.51-8.79-7.69-13.42-18.3-13.84-31.84H0V66.37h13.59V56.34H0V43.26h13.81c1.07-13.59 6.15-24.2 15.3-31.84C38.29 3.82 50.36 0 65.38 0c5.81 0 12.18.85 19.09 2.56l-3.54 22.2c-4.27-1.71-8.84-2.56-13.73-2.56-7.58 0-13.37 1.71-17.35 5.14-4.02 3.43-6.37 8.73-7.07 15.92h25.41v13.08H42.53v10.02h25.66v13.17z" fill-rule="evenodd" clip-rule="evenodd" fill="currentColor" /></svg>
