<svg width="100%" height="100%" viewBox="0 0 25 21" fill="none" xmlns="http://www.w3.org/2000/svg">
<g clip-path="url(#clip0)">
<path d="M19.1517 21H5.66533C4.42658 21 3.4176 20.1171 3.4176 19.0312V9.84375C3.4176 8.75787 4.42658 7.875 5.66533 7.875H19.1517C20.3904 7.875 21.3994 8.75787 21.3994 9.84375V19.0312C21.3994 20.1171 20.3904 21 19.1517 21ZM5.66533 9.1875C5.25275 9.1875 4.91609 9.4815 4.91609 9.84375V19.0312C4.91609 19.3935 5.25275 19.6875 5.66533 19.6875H19.1517C19.5643 19.6875 19.9009 19.3935 19.9009 19.0312V9.84375C19.9009 9.4815 19.5643 9.1875 19.1517 9.1875H5.66533Z" fill="currentColor" />
<path d="M17.6532 9.1875C17.2397 9.1875 16.904 8.8935 16.904 8.53125V5.25C16.904 3.07912 14.887 1.3125 12.4085 1.3125C9.93005 1.3125 7.9131 3.07912 7.9131 5.25V8.53125C7.9131 8.8935 7.57743 9.1875 7.16385 9.1875C6.75027 9.1875 6.41461 8.8935 6.41461 8.53125V5.25C6.41461 2.35462 9.10289 0 12.4085 0C15.7142 0 18.4025 2.35462 18.4025 5.25V8.53125C18.4025 8.8935 18.0668 9.1875 17.6532 9.1875Z" fill="currentColor" />
<path d="M12.4085 14.875C11.3066 14.875 10.4105 14.0901 10.4105 13.125C10.4105 12.1599 11.3066 11.375 12.4085 11.375C13.5104 11.375 14.4065 12.1599 14.4065 13.125C14.4065 14.0901 13.5104 14.875 12.4085 14.875ZM12.4085 12.6875C12.1338 12.6875 11.909 12.8835 11.909 13.125C11.909 13.3665 12.1338 13.5625 12.4085 13.5625C12.6832 13.5625 12.908 13.3665 12.908 13.125C12.908 12.8835 12.6832 12.6875 12.4085 12.6875Z" fill="currentColor" />
<path d="M12.4085 17.5C11.995 17.5 11.6593 17.206 11.6593 16.8438V14.4375C11.6593 14.0753 11.995 13.7812 12.4085 13.7812C12.8221 13.7812 13.1578 14.0753 13.1578 14.4375V16.8438C13.1578 17.206 12.8221 17.5 12.4085 17.5Z" fill="currentColor" />
</g>
<defs>
<clipPath id="clip0">
<rect width="23.9757" height="21" fill="currentColor" transform="translate(0.420654)"/>
</clipPath>
</defs>
</svg>
