<svg width="100%" height="100%" viewBox="0 0 22 21" fill="none" xmlns="http://www.w3.org/2000/svg">
<g clip-path="url(#clip0)">
<path d="M19.4296 2.62499H2.38438C1.29983 2.62499 0.417603 3.50811 0.417603 4.59375V16.4063C0.417603 17.4919 1.29983 18.375 2.38438 18.375H19.4296C20.5141 18.375 21.3964 17.4919 21.3964 16.4063V4.59375C21.3964 3.50811 20.5141 2.62499 19.4296 2.62499ZM19.4296 3.93748C19.5187 3.93748 19.6034 3.95598 19.6809 3.98829L10.907 11.6004L2.13305 3.98829C2.21052 3.95603 2.29526 3.93748 2.38433 3.93748H19.4296ZM19.4296 17.0625H2.38438C2.02266 17.0625 1.72877 16.7683 1.72877 16.4062V5.37495L10.4774 12.9648C10.601 13.0718 10.754 13.125 10.907 13.125C11.06 13.125 11.213 13.0718 11.3366 12.9648L20.0852 5.37495V16.4063C20.0852 16.7683 19.7913 17.0625 19.4296 17.0625Z" fill="currentColor" />
</g>
<defs>
<clipPath id="clip0">
<rect width="21" height="21" fill="currentColor" transform="translate(0.417603)"/>
</clipPath>
</defs>
</svg>
