<svg width="22" height="35" viewBox="0 0 22 35" fill="currentColor" xmlns="http://www.w3.org/2000/svg">
<path d="M16.0722 4.75103V5.25103H16.5722H19.0152C20.0974 5.26792 21.1573 6.39989 21.2231 8.08415V31.586C21.2231 33.1657 20.1114 34.2045 19.0189 34.2045H3.17996C2.08744 34.2045 0.975739 33.1657 0.975739 31.586V8.08409C1.04151 6.39991 2.1014 5.26792 3.18359 5.25103H5.62667H6.12667V4.75103V3.35596C6.12667 3.30975 6.13539 3.28558 6.14034 3.27502C6.14527 3.2645 6.15191 3.25574 6.16296 3.24678C6.18889 3.22575 6.24733 3.19946 6.33492 3.19946H8.2021H8.58002L8.68313 2.83588C9.07411 1.45726 10.0715 0.690382 11.0433 0.736947L11.0553 0.73752H11.0673C12.0997 0.73752 13.0509 1.37723 13.4503 2.83185L13.5512 3.19946H13.9324H15.8318C15.921 3.19946 15.9934 3.22681 16.0311 3.25562C16.0473 3.26802 16.0553 3.27899 16.06 3.28828C16.0643 3.29683 16.0722 3.31645 16.0722 3.35596V4.75103ZM6.91433 3.84075H6.41433V4.34075V7.62333V8.12333H6.91433H15.2846H15.7846V7.62333V4.34075V3.84075H15.2846H13.4854C13.4682 3.83596 13.4397 3.82214 13.4056 3.783C13.3612 3.73212 13.3172 3.64718 13.3007 3.53149L13.3008 3.53147L13.2987 3.51908C13.0963 2.31811 12.243 1.30079 11.0866 1.25611L11.0685 1.25542L11.0505 1.25602C9.88823 1.29504 9.02202 2.30652 8.80457 3.51352L8.80279 3.52338L8.80141 3.5333C8.77215 3.7437 8.67035 3.82034 8.62555 3.84075H6.91433ZM20.9354 31.5861V31.0861H20.9353V8.07461V8.05715L20.9341 8.03974C20.8576 6.94611 20.1205 5.91791 19.0305 5.89246L19.0305 5.89232H19.0188H16.5721H16.0721V6.39232V8.45471C16.0546 8.57792 16.0058 8.66566 15.9589 8.71498C15.911 8.76544 15.8778 8.7667 15.8665 8.76591L15.8491 8.7647H15.8317H6.33486H6.31827L6.30172 8.7658L6.30162 8.7658C6.29836 8.76603 6.27131 8.76789 6.2279 8.7201C6.18428 8.67208 6.13871 8.58513 6.12661 8.46385V6.3924V5.8924H5.62661H3.17996V5.89226L3.16834 5.89253C2.07812 5.91787 1.34112 6.94626 1.26467 8.03982L1.26346 8.05723V8.07469V31.5861C1.26346 32.7813 2.21223 33.5633 3.17996 33.5633H19.0189C19.9866 33.5633 20.9354 32.7813 20.9354 31.5861Z" fill="currentColor" stroke="currentColor"/>
<path d="M8.21979 18.8775L8.23015 18.8914L8.24144 18.9045C8.24475 18.9084 8.2474 18.9118 8.24955 18.9149L8.24954 18.9149L8.25217 18.9185C8.34988 19.0542 8.33551 19.2921 8.24079 19.4028L8.24074 19.4028L8.23545 19.4092L5.72426 22.4455L5.71858 22.4524L5.71315 22.4595C5.69237 22.4865 5.67411 22.4996 5.66361 22.5054C5.65836 22.5082 5.65473 22.5094 5.65284 22.51C5.65101 22.5105 5.65012 22.5105 5.64984 22.5105L5.64983 22.5104L5.64876 22.5104C5.64311 22.5066 5.63152 22.4971 5.61762 22.4773L5.61154 22.4686L5.60509 22.4602L4.28714 20.7394C4.17556 20.5885 4.17256 20.3222 4.27814 20.1651C4.2943 20.1487 4.30664 20.1417 4.31265 20.139C4.31942 20.1359 4.32235 20.1361 4.32276 20.1361L4.3228 20.1361C4.32315 20.1361 4.32798 20.1362 4.3378 20.1418C4.34786 20.1474 4.36657 20.1609 4.38858 20.1905L4.38857 20.1905L4.39092 20.1936L5.26018 21.3425L5.64235 21.8477L6.04494 21.3586L8.10125 18.8608C8.12139 18.838 8.13692 18.8291 8.14388 18.8259C8.15088 18.8227 8.15375 18.8231 8.15398 18.8231L8.15401 18.8231C8.1545 18.8231 8.15934 18.8233 8.16899 18.8287C8.17906 18.8344 8.19778 18.8479 8.21979 18.8775Z" fill="currentColor" stroke="currentColor"/>
<path d="M10.4559 20.8433H17.8603L17.8604 20.8433C17.8613 20.8433 17.8651 20.8432 17.8737 20.8479C17.8838 20.8533 17.9017 20.8661 17.9223 20.8923C17.9645 20.946 18.0042 21.0404 18.0042 21.1639C18.0042 21.2874 17.9645 21.3818 17.9223 21.4356C17.9017 21.4617 17.8838 21.4745 17.8737 21.4799C17.8651 21.4846 17.8613 21.4846 17.8604 21.4846L17.8603 21.4846H10.4559C10.4558 21.4846 10.4558 21.4846 10.4558 21.4846C10.4548 21.4846 10.4511 21.4846 10.4425 21.4799C10.4323 21.4745 10.4145 21.4617 10.3939 21.4356C10.3517 21.3818 10.312 21.2874 10.312 21.1639C10.312 21.0404 10.3517 20.946 10.3939 20.8923C10.4145 20.8661 10.4323 20.8533 10.4425 20.8479C10.4511 20.8432 10.4548 20.8433 10.4558 20.8433C10.4558 20.8433 10.4558 20.8433 10.4559 20.8433Z" fill="#748581" stroke="#748581"/>
<path d="M8.21979 12.3123L8.23015 12.3262L8.24144 12.3393C8.24475 12.3432 8.24741 12.3466 8.24955 12.3497L8.24954 12.3497L8.25217 12.3533C8.34988 12.489 8.33551 12.7269 8.24079 12.8377L8.24074 12.8376L8.23545 12.844L5.72426 15.8804L5.71858 15.8872L5.71315 15.8943C5.69237 15.9213 5.67411 15.9344 5.66361 15.9402C5.65835 15.943 5.65473 15.9443 5.65284 15.9448C5.65101 15.9453 5.65012 15.9453 5.64984 15.9453L5.64983 15.9452L5.64876 15.9452C5.64311 15.9414 5.63152 15.9319 5.61762 15.9121L5.61154 15.9034L5.60509 15.895L4.28714 14.1743C4.17555 14.0233 4.17256 13.757 4.27816 13.5999C4.29433 13.5835 4.30667 13.5765 4.31267 13.5738C4.31941 13.5707 4.32233 13.5709 4.32273 13.5709L4.32277 13.5709L4.32279 13.5709C4.32329 13.5709 4.32812 13.5711 4.33777 13.5765C4.34785 13.5822 4.36656 13.5957 4.38858 13.6253L4.38857 13.6253L4.39092 13.6284L5.26018 14.7773L5.64235 15.2825L6.04494 14.7934L8.10125 12.2956C8.12139 12.2728 8.13692 12.2639 8.14388 12.2607C8.15063 12.2577 8.15354 12.2579 8.15395 12.2579L8.15398 12.2579L8.15401 12.2579C8.1545 12.2579 8.15934 12.2581 8.16899 12.2635C8.17906 12.2692 8.19778 12.2827 8.21979 12.3123Z" fill="currentColor" stroke="currentColor"/>
<path d="M10.4559 14.2781H17.8603L17.8604 14.2781C17.8613 14.2781 17.8651 14.278 17.8737 14.2827C17.8838 14.2882 17.9017 14.3009 17.9223 14.3271C17.9645 14.3809 18.0042 14.4752 18.0042 14.5987C18.0042 14.7222 17.9645 14.8166 17.9223 14.8704C17.9017 14.8965 17.8838 14.9093 17.8737 14.9148C17.8647 14.9196 17.8611 14.9194 17.8603 14.9194H10.4559C10.4558 14.9194 10.4558 14.9194 10.4558 14.9194C10.4548 14.9194 10.4511 14.9194 10.4425 14.9148C10.4323 14.9093 10.4145 14.8965 10.3939 14.8704C10.3517 14.8166 10.312 14.7222 10.312 14.5987C10.312 14.4752 10.3517 14.3809 10.3939 14.3271C10.4145 14.3009 10.4323 14.2882 10.4425 14.2827C10.4511 14.278 10.4548 14.2781 10.4558 14.2781C10.4558 14.2781 10.4558 14.2781 10.4559 14.2781Z" fill="#748581" stroke="#748581"/>
<path d="M8.21979 25.4426L8.22977 25.456L8.24061 25.4687C8.24453 25.4733 8.24767 25.4774 8.2502 25.4809L8.25019 25.4809L8.25217 25.4837C8.34988 25.6194 8.33551 25.8573 8.24079 25.968L8.24074 25.9679L8.23545 25.9743L5.72426 29.0107L5.71858 29.0176L5.71315 29.0246C5.69237 29.0517 5.67411 29.0648 5.66361 29.0705C5.65836 29.0734 5.65473 29.0746 5.65284 29.0751C5.65101 29.0756 5.65012 29.0757 5.64984 29.0757L5.64983 29.0755L5.64876 29.0756C5.64311 29.0717 5.63152 29.0623 5.61762 29.0424L5.61154 29.0338L5.60509 29.0253L4.28714 27.3046C4.17556 27.1537 4.17256 26.8874 4.27814 26.7302C4.2943 26.7138 4.30664 26.7069 4.31265 26.7041C4.31942 26.701 4.32235 26.7012 4.32276 26.7013L4.3228 26.7013L4.32282 26.7013C4.32332 26.7013 4.32816 26.7015 4.3378 26.7069C4.34786 26.7126 4.36657 26.726 4.38858 26.7556L4.38857 26.7556L4.39092 26.7587L5.26018 27.9077L5.64235 28.4128L6.04494 27.9238L8.10122 25.4259C8.12136 25.4032 8.13689 25.3943 8.14387 25.3911C8.15063 25.388 8.15356 25.3882 8.15398 25.3883L8.15401 25.3883L8.15404 25.3883C8.15454 25.3883 8.15937 25.3885 8.16901 25.3939C8.17908 25.3996 8.19779 25.413 8.21979 25.4426Z" fill="currentColor" stroke="currentColor"/>
<path d="M10.4559 27.4084H17.8603L17.8604 27.4084C17.8613 27.4084 17.8651 27.4084 17.8737 27.4131C17.8838 27.4185 17.9017 27.4313 17.9223 27.4574C17.9645 27.5112 18.0042 27.6056 18.0042 27.7291C18.0042 27.8526 17.9645 27.947 17.9223 28.0007C17.9017 28.0269 17.8838 28.0397 17.8737 28.0451C17.8651 28.0498 17.8613 28.0497 17.8604 28.0497L17.8603 28.0497H10.4559C10.4558 28.0497 10.4558 28.0497 10.4558 28.0497C10.4548 28.0497 10.4511 28.0498 10.4425 28.0451C10.4323 28.0397 10.4145 28.0269 10.3939 28.0007C10.3517 27.947 10.312 27.8526 10.312 27.7291C10.312 27.6056 10.3517 27.5112 10.3939 27.4574C10.4145 27.4313 10.4323 27.4185 10.4425 27.4131C10.4511 27.4084 10.4548 27.4084 10.4558 27.4084C10.4558 27.4084 10.4558 27.4084 10.4559 27.4084Z" fill="#748581" stroke="#748581"/>
</svg>
