<svg xmlns="http://www.w3.org/2000/svg" width="16" height="16" viewBox="0 0 16 16">
    <g fill="none" fill-rule="evenodd">
        <g fill="currentColor" fill-rule="nonzero">
            <g>
                <g>
                    <path d="M2.826 4.205v.538L.853 6.716c-.195.195-.512.195-.707 0-.195-.195-.195-.511 0-.707l3.18-3.18 3.18 3.18c.195.196.195.512 0 .707-.098.098-.226.147-.354.147-.128 0-.256-.05-.353-.147L3.826 4.744v3.343c0 3.007 2.389 5.467 5.368 5.583l.219.004c3.08 0 5.587-2.507 5.587-5.587C15 5.007 12.493 2.5 9.413 2.5v-1C13.045 1.5 16 4.455 16 8.087c0 3.632-2.955 6.587-6.587 6.587-3.632 0-6.587-2.955-6.587-6.587V4.205z" transform="translate(-690 -117) translate(674 108) translate(16 9)"/>
                </g>
            </g>
        </g>
    </g>
</svg>
