<svg xmlns="http://www.w3.org/2000/svg" width="20" height="20" viewBox="0 0 20 20">
    <g fill="none" fill-rule="evenodd">
        <g fill="currentColor" fill-rule="nonzero">
            <g>
                <g>
                    <g>
                        <path d="M3.359 7.36l3.101 3.104c.35.39.333.985-.038 1.354-.37.369-.965.383-1.354.033l-.684-.69c.26 2.288 1.922 4.17 4.161 4.709 2.24.54 4.577-.38 5.85-2.299l1.69 1.003c-1.738 2.683-4.994 3.959-8.092 3.17-3.099-.788-5.349-3.465-5.593-6.652l-.726.723c-.384.352-.976.342-1.348-.022-.373-.364-.395-.956-.052-1.348L3.359 7.36zm.282-1.318c1.735-2.692 4.996-3.975 8.1-3.186 3.105.79 5.358 3.474 5.596 6.669l.726-.724c.185-.18.435-.279.693-.274.26-.004.51.094.696.274.37.382.37.989 0 1.37l-3.09 3.085-3.096-3.104c-.27-.244-.383-.617-.295-.97.089-.352.365-.627.718-.715.353-.087.726.028.969.299l.684.69c-.26-2.288-1.922-4.17-4.161-4.71-2.24-.539-4.577.38-5.85 2.3z" transform="translate(-1448 -329) translate(30 180) translate(0 139) translate(1418 10)"/>
                    </g>
                </g>
            </g>
        </g>
    </g>
</svg>
