<svg width="100%" height="100%" viewBox="0 0 31 31" fill="currentColor" xmlns="http://www.w3.org/2000/svg">
<g clip-path="url(#clip0)">
<path d="M26.6991 4.77132C23.7732 1.71733 19.7249 -0.0061994 15.4955 0.00158264C6.9484 -0.00918251 0.0107774 6.91093 1.22704e-05 15.4581C-0.00530545 19.6844 1.71803 23.729 4.76975 26.6528C4.77864 26.6616 4.78194 26.6749 4.79076 26.6827C4.88039 26.769 4.97779 26.8421 5.06858 26.9251C5.31761 27.1464 5.56663 27.3755 5.82895 27.5892C5.96948 27.6999 6.11559 27.8105 6.25949 27.9123C6.50742 28.0971 6.75534 28.282 7.01429 28.4524C7.19029 28.5631 7.37181 28.6738 7.55215 28.7845C7.79119 28.9284 8.02919 29.0733 8.27601 29.205C8.48522 29.3157 8.69877 29.4109 8.91129 29.5116C9.14371 29.6223 9.37283 29.7329 9.61076 29.8325C9.8487 29.9321 10.0878 30.0096 10.329 30.0959C10.5703 30.1823 10.7784 30.262 11.0097 30.3328C11.2709 30.4114 11.5388 30.4722 11.8044 30.5375C12.0257 30.5917 12.2404 30.6537 12.4685 30.698C12.7739 30.7589 13.0838 30.7976 13.3937 30.8397C13.5852 30.8663 13.7723 30.9039 13.9659 30.9227C14.4728 30.9725 14.9841 31.0002 15.4999 31.0002C16.0156 31.0002 16.527 30.9725 17.0339 30.9227C17.2276 30.9039 17.4146 30.8663 17.606 30.8397C17.9159 30.7976 18.2258 30.7589 18.5313 30.698C18.7526 30.6537 18.974 30.5873 19.1954 30.5375C19.461 30.4722 19.7288 30.4113 19.9901 30.3328C20.2214 30.262 20.4449 30.1756 20.6707 30.0959C20.8965 30.0162 21.1533 29.9299 21.389 29.8325C21.6247 29.7351 21.8561 29.6211 22.0885 29.5116C22.301 29.4109 22.5146 29.3157 22.7238 29.205C22.9706 29.0733 23.2085 28.9283 23.4476 28.7845C23.628 28.6738 23.8095 28.5731 23.9855 28.4524C24.2445 28.282 24.4924 28.0972 24.7403 27.9123C24.8842 27.8016 25.0302 27.702 25.1708 27.5892C25.4331 27.3789 25.6822 27.1553 25.9312 26.9251C26.0219 26.8421 26.1193 26.7691 26.209 26.6827C26.2178 26.675 26.2212 26.6617 26.23 26.6528C32.4021 20.7399 32.612 10.9432 26.6991 4.77132ZM24.2115 25.494C24.0101 25.6711 23.802 25.8393 23.5917 26.002C23.4678 26.0972 23.3438 26.1912 23.2165 26.282C23.0162 26.427 22.8125 26.5643 22.6055 26.696C22.455 26.7923 22.3012 26.8852 22.1462 26.976C21.9514 27.0867 21.7533 27.1973 21.5529 27.308C21.3758 27.3988 21.1954 27.484 21.014 27.5681C20.8325 27.6523 20.6321 27.7419 20.4362 27.8205C20.2403 27.8991 20.0323 27.9732 19.8275 28.0418C19.6404 28.106 19.4534 28.1724 19.2641 28.2288C19.0428 28.2952 18.8115 28.3495 18.5823 28.4048C18.403 28.4469 18.226 28.4945 18.0445 28.5299C17.7822 28.5809 17.5143 28.6163 17.2454 28.6528C17.0927 28.6727 16.941 28.7004 16.7872 28.7159C16.3621 28.7568 15.9316 28.7812 15.4966 28.7812C15.0617 28.7812 14.6311 28.7569 14.2061 28.7159C14.0523 28.7004 13.9007 28.6727 13.7479 28.6528C13.479 28.6163 13.2111 28.5809 12.9488 28.5299C12.7673 28.4945 12.5902 28.4469 12.4109 28.4048C12.1818 28.3495 11.9538 28.2941 11.7292 28.2288C11.5399 28.1724 11.3528 28.106 11.1658 28.0418C10.9611 27.971 10.7563 27.899 10.5571 27.8205C10.3578 27.7419 10.1697 27.6556 9.97931 27.5681C9.78891 27.4807 9.61738 27.3988 9.44034 27.308C9.24001 27.204 9.04189 27.0944 8.84708 26.976C8.69216 26.8853 8.53827 26.7923 8.38775 26.696C8.18081 26.5643 7.97712 26.427 7.7768 26.282C7.64949 26.1913 7.52557 26.0972 7.40157 26.002C7.19126 25.8393 6.98322 25.67 6.7818 25.494C6.73309 25.4575 6.6888 25.411 6.64127 25.3689C6.69075 21.6039 9.10947 18.2794 12.6766 17.0736C14.4601 17.922 16.5309 17.922 18.3145 17.0736C21.8815 18.2794 24.3003 21.6038 24.3498 25.3689C24.3033 25.411 24.259 25.4531 24.2115 25.494ZM11.6361 8.87557C12.8345 6.74433 15.5336 5.98811 17.6648 7.18648C19.7961 8.38485 20.5523 11.084 19.3539 13.2152C18.9563 13.9223 18.372 14.5066 17.6648 14.9043C17.6593 14.9043 17.6527 14.9043 17.646 14.9109C17.3525 15.0743 17.0423 15.2057 16.7208 15.3028C16.6632 15.3194 16.6101 15.3415 16.5492 15.3559C16.4385 15.3847 16.3223 15.4046 16.2083 15.4245C15.9937 15.462 15.7765 15.4838 15.5586 15.4898H15.4324C15.2146 15.4838 14.9974 15.462 14.7828 15.4245C14.6721 15.4046 14.5548 15.3847 14.4419 15.3559C14.3832 15.3415 14.3312 15.3194 14.2704 15.3028C13.9488 15.2057 13.6386 15.0743 13.3451 14.9109L13.3252 14.9043C11.194 13.7059 10.4377 11.0068 11.6361 8.87557ZM26.3132 23.1742C25.603 19.8615 23.4215 17.053 20.3875 15.5452C22.8677 12.8435 22.6881 8.64269 19.9864 6.16249C17.2846 3.68229 13.0838 3.86193 10.6036 6.56365C8.27199 9.10358 8.27199 13.0054 10.6036 15.5452C7.5696 17.0531 5.38816 19.8615 4.67792 23.1742C0.433861 17.1961 1.83956 8.90942 7.81765 4.66536C13.7957 0.421294 22.0824 1.82699 26.3265 7.80508C27.9219 10.0523 28.7783 12.7405 28.7769 15.4965C28.7769 18.2501 27.9155 20.9347 26.3132 23.1742Z" fill="currentColor"/>
</g>
<defs>
<clipPath id="clip0">
<rect width="31" height="31" fill="currentColor"/>
</clipPath>
</defs>
</svg>
