<svg width="100%" height="100%" viewBox="0 0 23 20" fill="none" xmlns="http://www.w3.org/2000/svg">
<g clip-path="url(#clip0)">
<path d="M19.1768 12.9289C17.9799 11.8398 16.5553 11.0335 15.001 10.5454C16.6657 9.50199 17.7594 7.75578 17.7594 5.78125C17.7594 2.59348 14.9095 0 11.4065 0C7.90347 0 5.05353 2.59348 5.05353 5.78125C5.05353 7.75578 6.14723 9.50199 7.812 10.5454C6.25768 11.0335 4.83307 11.8398 3.63618 12.9289C1.56066 14.8177 0.417603 17.3289 0.417603 20H2.13461C2.13461 15.3475 6.29395 11.5625 11.4065 11.5625C16.519 11.5625 20.6783 15.3475 20.6783 20H22.3954C22.3954 17.3289 21.2523 14.8177 19.1768 12.9289ZM11.4065 10C8.85023 10 6.77055 8.1075 6.77055 5.78125C6.77055 3.455 8.85023 1.5625 11.4065 1.5625C13.9627 1.5625 16.0424 3.455 16.0424 5.78125C16.0424 8.1075 13.9627 10 11.4065 10Z" fill="currentColor" />
</g>
<defs>
<clipPath id="clip0">
<rect width="21.9778" height="20" fill="currentColor" transform="translate(0.417603)"/>
</clipPath>
</defs>
</svg>
