<svg width="92" height="42" viewBox="0 0 92 42" fill="none" xmlns="http://www.w3.org/2000/svg">
<path d="M39.5851 5.85813H34.1971C34.2131 6.34613 34.3371 6.78213 34.5691 7.16613C34.8011 7.54213 35.1131 7.83413 35.5051 8.04213C35.9051 8.25013 36.3531 8.35413 36.8491 8.35413C37.2571 8.35413 37.6331 8.28213 37.9771 8.13813C38.3291 7.98613 38.6211 7.76613 38.8531 7.47813L39.2011 7.87413C38.9291 8.20213 38.5851 8.45413 38.1691 8.63013C37.7611 8.80613 37.3171 8.89413 36.8371 8.89413C36.2131 8.89413 35.6571 8.75813 35.1691 8.48613C34.6811 8.21413 34.2971 7.83813 34.0171 7.35813C33.7451 6.87813 33.6091 6.33013 33.6091 5.71413C33.6091 5.10613 33.7371 4.56213 33.9931 4.08213C34.2571 3.59413 34.6171 3.21413 35.0731 2.94213C35.5291 2.67013 36.0411 2.53413 36.6091 2.53413C37.1771 2.53413 37.6851 2.67013 38.1331 2.94213C38.5891 3.20613 38.9451 3.57813 39.2011 4.05813C39.4651 4.53813 39.5971 5.08213 39.5971 5.69013L39.5851 5.85813ZM36.6091 3.06213C36.1691 3.06213 35.7731 3.16213 35.4211 3.36213C35.0691 3.55413 34.7851 3.83013 34.5691 4.19013C34.3611 4.54213 34.2411 4.94213 34.2091 5.39013H39.0091C38.9851 4.94213 38.8651 4.54213 38.6491 4.19013C38.4331 3.83813 38.1491 3.56213 37.7971 3.36213C37.4451 3.16213 37.0491 3.06213 36.6091 3.06213ZM43.9895 2.53413C44.7655 2.53413 45.3615 2.73413 45.7775 3.13413C46.1935 3.52613 46.4015 4.10613 46.4015 4.87413V8.84613H45.8255V7.73013C45.6255 8.09813 45.3335 8.38613 44.9495 8.59413C44.5655 8.79413 44.1055 8.89413 43.5695 8.89413C42.8735 8.89413 42.3215 8.73013 41.9135 8.40213C41.5135 8.07413 41.3135 7.64213 41.3135 7.10613C41.3135 6.58613 41.4975 6.16613 41.8655 5.84613C42.2415 5.51813 42.8375 5.35413 43.6535 5.35413H45.8015V4.85013C45.8015 4.26613 45.6415 3.82213 45.3215 3.51813C45.0095 3.21413 44.5495 3.06213 43.9415 3.06213C43.5255 3.06213 43.1255 3.13413 42.7415 3.27813C42.3655 3.42213 42.0455 3.61413 41.7815 3.85413L41.4815 3.42213C41.7935 3.14213 42.1695 2.92613 42.6095 2.77413C43.0495 2.61413 43.5095 2.53413 43.9895 2.53413ZM43.6535 8.40213C44.1735 8.40213 44.6135 8.28213 44.9735 8.04213C45.3415 7.80213 45.6175 7.45413 45.8015 6.99813V5.82213H43.6655C43.0495 5.82213 42.6015 5.93413 42.3215 6.15813C42.0495 6.38213 41.9135 6.69013 41.9135 7.08213C41.9135 7.49013 42.0655 7.81413 42.3695 8.05413C42.6735 8.28613 43.1015 8.40213 43.6535 8.40213ZM51.0576 8.89413C50.5536 8.89413 50.0736 8.81813 49.6176 8.66613C49.1616 8.51413 48.8056 8.32213 48.5496 8.09013L48.8256 7.61013C49.0816 7.82613 49.4096 8.00613 49.8096 8.15013C50.2176 8.29413 50.6416 8.36613 51.0816 8.36613C51.7136 8.36613 52.1776 8.26213 52.4736 8.05413C52.7776 7.84613 52.9296 7.55813 52.9296 7.19013C52.9296 6.92613 52.8456 6.71813 52.6776 6.56613C52.5176 6.41413 52.3176 6.30213 52.0776 6.23013C51.8376 6.15813 51.5056 6.08213 51.0816 6.00213C50.5856 5.91413 50.1856 5.81813 49.8816 5.71413C49.5776 5.61013 49.3176 5.44213 49.1016 5.21013C48.8856 4.97813 48.7776 4.65813 48.7776 4.25013C48.7776 3.75413 48.9816 3.34613 49.3896 3.02613C49.8056 2.69813 50.3936 2.53413 51.1536 2.53413C51.5536 2.53413 51.9496 2.59013 52.3416 2.70213C52.7336 2.81413 53.0536 2.96213 53.3016 3.14613L53.0256 3.62613C52.7696 3.44213 52.4776 3.30213 52.1496 3.20613C51.8216 3.11013 51.4856 3.06213 51.1416 3.06213C50.5576 3.06213 50.1176 3.17013 49.8216 3.38613C49.5256 3.60213 49.3776 3.88613 49.3776 4.23813C49.3776 4.51813 49.4616 4.73813 49.6296 4.89813C49.7976 5.05013 50.0016 5.16613 50.2416 5.24613C50.4896 5.31813 50.8336 5.39813 51.2736 5.48613C51.7616 5.57413 52.1536 5.67013 52.4496 5.77413C52.7536 5.87013 53.0096 6.03013 53.2176 6.25413C53.4256 6.47813 53.5296 6.78613 53.5296 7.17813C53.5296 7.69813 53.3136 8.11413 52.8816 8.42613C52.4496 8.73813 51.8416 8.89413 51.0576 8.89413ZM60.7149 2.58213L57.4989 9.69813C57.2589 10.2501 56.9789 10.6421 56.6589 10.8741C56.3469 11.1061 55.9749 11.2221 55.5429 11.2221C55.2549 11.2221 54.9829 11.1741 54.7269 11.0781C54.4789 10.9821 54.2669 10.8421 54.0909 10.6581L54.3909 10.2021C54.7109 10.5301 55.0989 10.6941 55.5549 10.6941C55.8589 10.6941 56.1189 10.6101 56.3349 10.4421C56.5509 10.2741 56.7509 9.98613 56.9349 9.57813L57.2709 8.82213L54.4509 2.58213H55.0869L57.5949 8.18613L60.1029 2.58213H60.7149Z" fill="black"/>
<path d="M43.7229 32.3421L41.4069 38.8461H39.1989L37.9749 35.3061L36.7029 38.8461H34.4949L32.1789 32.3421H34.3389L35.6709 36.2781L37.0509 32.3421H38.9949L40.3389 36.3141L41.7189 32.3421H43.7229ZM51.4917 35.6061C51.4917 35.6221 51.4797 35.8101 51.4557 36.1701H46.7277C46.8237 36.5061 47.0077 36.7661 47.2797 36.9501C47.5597 37.1261 47.9077 37.2141 48.3237 37.2141C48.6357 37.2141 48.9037 37.1701 49.1277 37.0821C49.3597 36.9941 49.5917 36.8501 49.8237 36.6501L51.0237 37.8981C50.3917 38.6021 49.4677 38.9541 48.2517 38.9541C47.4917 38.9541 46.8237 38.8101 46.2477 38.5221C45.6717 38.2341 45.2237 37.8341 44.9037 37.3221C44.5917 36.8101 44.4357 36.2301 44.4357 35.5821C44.4357 34.9421 44.5877 34.3701 44.8917 33.8661C45.2037 33.3541 45.6317 32.9541 46.1757 32.6661C46.7197 32.3781 47.3317 32.2341 48.0117 32.2341C48.6597 32.2341 49.2477 32.3701 49.7757 32.6421C50.3037 32.9061 50.7197 33.2941 51.0237 33.8061C51.3357 34.3101 51.4917 34.9101 51.4917 35.6061ZM48.0237 33.8541C47.6717 33.8541 47.3757 33.9541 47.1357 34.1541C46.9037 34.3541 46.7557 34.6261 46.6917 34.9701H49.3557C49.2917 34.6261 49.1397 34.3541 48.8997 34.1541C48.6677 33.9541 48.3757 33.8541 48.0237 33.8541ZM57.235 32.2341C57.827 32.2341 58.363 32.3701 58.843 32.6421C59.331 32.9141 59.715 33.3061 59.995 33.8181C60.283 34.3221 60.427 34.9101 60.427 35.5821C60.427 36.2541 60.283 36.8461 59.995 37.3581C59.715 37.8701 59.331 38.2661 58.843 38.5461C58.363 38.8181 57.827 38.9541 57.235 38.9541C56.379 38.9541 55.739 38.7021 55.315 38.1981V38.8461H53.143V29.9421H55.423V32.9061C55.863 32.4581 56.467 32.2341 57.235 32.2341ZM56.755 37.1421C57.155 37.1421 57.483 37.0061 57.739 36.7341C57.995 36.4541 58.123 36.0701 58.123 35.5821C58.123 35.1021 57.995 34.7261 57.739 34.4541C57.483 34.1821 57.155 34.0461 56.755 34.0461C56.355 34.0461 56.027 34.1821 55.771 34.4541C55.515 34.7261 55.387 35.1021 55.387 35.5821C55.387 36.0701 55.515 36.4541 55.771 36.7341C56.027 37.0061 56.355 37.1421 56.755 37.1421Z" fill="#0C0B0B"/>
<mask id="path-2-inside-1" fill="white">
<path d="M88.2903 4.2H82.3548C82.1057 4.20006 81.8571 4.2235 81.6129 4.27V3.5C81.6119 2.57203 81.2208 1.68233 80.5253 1.02615C79.8298 0.369972 78.8868 0.000926584 77.9032 0H67.5161C66.5326 0.000926584 65.5896 0.369972 64.8941 1.02615C64.1986 1.68233 63.8074 2.57203 63.8065 3.5V14H28.1935V3.5C28.1926 2.57203 27.8014 1.68233 27.1059 1.02615C26.4104 0.369972 25.4674 0.000926584 24.4839 0H14.0968C13.1132 0.000926584 12.1702 0.369972 11.4747 1.02615C10.7792 1.68233 10.3881 2.57203 10.3871 3.5V4.27C10.1429 4.2235 9.89432 4.20006 9.64516 4.2H3.70968C2.72611 4.20093 1.78311 4.56997 1.08762 5.22615C0.392137 5.88233 0.000982094 6.77203 0 7.7V34.3C0.000982094 35.228 0.392137 36.1177 1.08762 36.7738C1.78311 37.43 2.72611 37.7991 3.70968 37.8H9.64516C9.89432 37.7999 10.1429 37.7765 10.3871 37.73V38.5C10.3881 39.428 10.7792 40.3177 11.4747 40.9739C12.1702 41.63 13.1132 41.9991 14.0968 42H24.4839C25.4674 41.9991 26.4104 41.63 27.1059 40.9739C27.8014 40.3177 28.1926 39.428 28.1935 38.5V28H63.8065V38.5C63.8074 39.428 64.1986 40.3177 64.8941 40.9739C65.5896 41.63 66.5326 41.9991 67.5161 42H77.9032C78.8868 41.9991 79.8298 41.63 80.5253 40.9739C81.2208 40.3177 81.6119 39.428 81.6129 38.5V37.73C81.8571 37.7765 82.1057 37.7999 82.3548 37.8H88.2903C89.2739 37.7991 90.2169 37.43 90.9124 36.7738C91.6079 36.1177 91.999 35.228 92 34.3V7.7C91.999 6.77203 91.6079 5.88233 90.9124 5.22615C90.2169 4.56997 89.2739 4.20093 88.2903 4.2ZM10.3871 34.3C10.3871 34.4856 10.3089 34.6637 10.1698 34.795C10.0306 34.9263 9.84194 35 9.64516 35H3.70968C3.5129 35 3.32419 34.9263 3.18505 34.795C3.04591 34.6637 2.96774 34.4856 2.96774 34.3V7.7C2.96774 7.51435 3.04591 7.3363 3.18505 7.20502C3.32419 7.07375 3.5129 7 3.70968 7H9.64516C9.84194 7 10.0306 7.07375 10.1698 7.20502C10.3089 7.3363 10.3871 7.51435 10.3871 7.7V34.3ZM25.2258 38.5C25.2258 38.6856 25.1476 38.8637 25.0085 38.995C24.8694 39.1263 24.6806 39.2 24.4839 39.2H14.0968C13.9 39.2 13.7113 39.1263 13.5721 38.995C13.433 38.8637 13.3548 38.6856 13.3548 38.5V3.5C13.3548 3.31435 13.433 3.1363 13.5721 3.00502C13.7113 2.87375 13.9 2.8 14.0968 2.8H24.4839C24.6806 2.8 24.8694 2.87375 25.0085 3.00502C25.1476 3.1363 25.2258 3.31435 25.2258 3.5V38.5ZM63.8065 25.2H28.1935V16.8H63.8065V25.2ZM78.6452 38.5C78.6452 38.6856 78.567 38.8637 78.4279 38.995C78.2887 39.1263 78.1 39.2 77.9032 39.2H67.5161C67.3194 39.2 67.1306 39.1263 66.9915 38.995C66.8524 38.8637 66.7742 38.6856 66.7742 38.5V3.5C66.7742 3.31435 66.8524 3.1363 66.9915 3.00502C67.1306 2.87375 67.3194 2.8 67.5161 2.8H77.9032C78.1 2.8 78.2887 2.87375 78.4279 3.00502C78.567 3.1363 78.6452 3.31435 78.6452 3.5V38.5ZM89.0323 34.3C89.0323 34.4856 88.9541 34.6637 88.8149 34.795C88.6758 34.9263 88.4871 35 88.2903 35H82.3548C82.1581 35 81.9694 34.9263 81.8302 34.795C81.6911 34.6637 81.6129 34.4856 81.6129 34.3V7.7C81.6129 7.51435 81.6911 7.3363 81.8302 7.20502C81.9694 7.07375 82.1581 7 82.3548 7H88.2903C88.4871 7 88.6758 7.07375 88.8149 7.20502C88.9541 7.3363 89.0323 7.51435 89.0323 7.7V34.3Z"/>
</mask>
<path d="M88.2903 4.2H82.3548C82.1057 4.20006 81.8571 4.2235 81.6129 4.27V3.5C81.6119 2.57203 81.2208 1.68233 80.5253 1.02615C79.8298 0.369972 78.8868 0.000926584 77.9032 0H67.5161C66.5326 0.000926584 65.5896 0.369972 64.8941 1.02615C64.1986 1.68233 63.8074 2.57203 63.8065 3.5V14H28.1935V3.5C28.1926 2.57203 27.8014 1.68233 27.1059 1.02615C26.4104 0.369972 25.4674 0.000926584 24.4839 0H14.0968C13.1132 0.000926584 12.1702 0.369972 11.4747 1.02615C10.7792 1.68233 10.3881 2.57203 10.3871 3.5V4.27C10.1429 4.2235 9.89432 4.20006 9.64516 4.2H3.70968C2.72611 4.20093 1.78311 4.56997 1.08762 5.22615C0.392137 5.88233 0.000982094 6.77203 0 7.7V34.3C0.000982094 35.228 0.392137 36.1177 1.08762 36.7738C1.78311 37.43 2.72611 37.7991 3.70968 37.8H9.64516C9.89432 37.7999 10.1429 37.7765 10.3871 37.73V38.5C10.3881 39.428 10.7792 40.3177 11.4747 40.9739C12.1702 41.63 13.1132 41.9991 14.0968 42H24.4839C25.4674 41.9991 26.4104 41.63 27.1059 40.9739C27.8014 40.3177 28.1926 39.428 28.1935 38.5V28H63.8065V38.5C63.8074 39.428 64.1986 40.3177 64.8941 40.9739C65.5896 41.63 66.5326 41.9991 67.5161 42H77.9032C78.8868 41.9991 79.8298 41.63 80.5253 40.9739C81.2208 40.3177 81.6119 39.428 81.6129 38.5V37.73C81.8571 37.7765 82.1057 37.7999 82.3548 37.8H88.2903C89.2739 37.7991 90.2169 37.43 90.9124 36.7738C91.6079 36.1177 91.999 35.228 92 34.3V7.7C91.999 6.77203 91.6079 5.88233 90.9124 5.22615C90.2169 4.56997 89.2739 4.20093 88.2903 4.2ZM10.3871 34.3C10.3871 34.4856 10.3089 34.6637 10.1698 34.795C10.0306 34.9263 9.84194 35 9.64516 35H3.70968C3.5129 35 3.32419 34.9263 3.18505 34.795C3.04591 34.6637 2.96774 34.4856 2.96774 34.3V7.7C2.96774 7.51435 3.04591 7.3363 3.18505 7.20502C3.32419 7.07375 3.5129 7 3.70968 7H9.64516C9.84194 7 10.0306 7.07375 10.1698 7.20502C10.3089 7.3363 10.3871 7.51435 10.3871 7.7V34.3ZM25.2258 38.5C25.2258 38.6856 25.1476 38.8637 25.0085 38.995C24.8694 39.1263 24.6806 39.2 24.4839 39.2H14.0968C13.9 39.2 13.7113 39.1263 13.5721 38.995C13.433 38.8637 13.3548 38.6856 13.3548 38.5V3.5C13.3548 3.31435 13.433 3.1363 13.5721 3.00502C13.7113 2.87375 13.9 2.8 14.0968 2.8H24.4839C24.6806 2.8 24.8694 2.87375 25.0085 3.00502C25.1476 3.1363 25.2258 3.31435 25.2258 3.5V38.5ZM63.8065 25.2H28.1935V16.8H63.8065V25.2ZM78.6452 38.5C78.6452 38.6856 78.567 38.8637 78.4279 38.995C78.2887 39.1263 78.1 39.2 77.9032 39.2H67.5161C67.3194 39.2 67.1306 39.1263 66.9915 38.995C66.8524 38.8637 66.7742 38.6856 66.7742 38.5V3.5C66.7742 3.31435 66.8524 3.1363 66.9915 3.00502C67.1306 2.87375 67.3194 2.8 67.5161 2.8H77.9032C78.1 2.8 78.2887 2.87375 78.4279 3.00502C78.567 3.1363 78.6452 3.31435 78.6452 3.5V38.5ZM89.0323 34.3C89.0323 34.4856 88.9541 34.6637 88.8149 34.795C88.6758 34.9263 88.4871 35 88.2903 35H82.3548C82.1581 35 81.9694 34.9263 81.8302 34.795C81.6911 34.6637 81.6129 34.4856 81.6129 34.3V7.7C81.6129 7.51435 81.6911 7.3363 81.8302 7.20502C81.9694 7.07375 82.1581 7 82.3548 7H88.2903C88.4871 7 88.6758 7.07375 88.8149 7.20502C88.9541 7.3363 89.0323 7.51435 89.0323 7.7V34.3Z" fill="#0C0B0B" stroke="black" stroke-width="2" mask="url(#path-2-inside-1)"/>
</svg>
