<svg width="54" height="54" viewBox="0 0 54 54" fill="none" xmlns="http://www.w3.org/2000/svg">
<rect x="0.5" y="0.5" width="53" height="53" rx="14.5" fill="#379578" stroke="#379578"/>
<path d="M17.0422 17.04C17.0422 17.17 17.0322 17.355 17.0122 17.595H10.7272C10.8372 18.185 11.1222 18.655 11.5822 19.005C12.0522 19.345 12.6322 19.515 13.3222 19.515C14.2022 19.515 14.9272 19.225 15.4972 18.645L16.5022 19.8C16.1422 20.23 15.6872 20.555 15.1372 20.775C14.5872 20.995 13.9672 21.105 13.2772 21.105C12.3972 21.105 11.6222 20.93 10.9522 20.58C10.2822 20.23 9.76223 19.745 9.39223 19.125C9.03223 18.495 8.85223 17.785 8.85223 16.995C8.85223 16.215 9.02723 15.515 9.37723 14.895C9.73723 14.265 10.2322 13.775 10.8622 13.425C11.4922 13.075 12.2022 12.9 12.9922 12.9C13.7722 12.9 14.4672 13.075 15.0772 13.425C15.6972 13.765 16.1772 14.25 16.5172 14.88C16.8672 15.5 17.0422 16.22 17.0422 17.04ZM12.9922 14.4C12.3922 14.4 11.8822 14.58 11.4622 14.94C11.0522 15.29 10.8022 15.76 10.7122 16.35H15.2572C15.1772 15.77 14.9322 15.3 14.5222 14.94C14.1122 14.58 13.6022 14.4 12.9922 14.4ZM22.4336 12.9C23.6136 12.9 24.5136 13.185 25.1336 13.755C25.7636 14.315 26.0786 15.165 26.0786 16.305V21H24.3086V20.025C24.0786 20.375 23.7486 20.645 23.3186 20.835C22.8986 21.015 22.3886 21.105 21.7886 21.105C21.1886 21.105 20.6636 21.005 20.2136 20.805C19.7636 20.595 19.4136 20.31 19.1636 19.95C18.9236 19.58 18.8036 19.165 18.8036 18.705C18.8036 17.985 19.0686 17.41 19.5986 16.98C20.1386 16.54 20.9836 16.32 22.1336 16.32H24.2036V16.2C24.2036 15.64 24.0336 15.21 23.6936 14.91C23.3636 14.61 22.8686 14.46 22.2086 14.46C21.7586 14.46 21.3136 14.53 20.8736 14.67C20.4436 14.81 20.0786 15.005 19.7786 15.255L19.0436 13.89C19.4636 13.57 19.9686 13.325 20.5586 13.155C21.1486 12.985 21.7736 12.9 22.4336 12.9ZM22.1786 19.74C22.6486 19.74 23.0636 19.635 23.4236 19.425C23.7936 19.205 24.0536 18.895 24.2036 18.495V17.565H22.2686C21.1886 17.565 20.6486 17.92 20.6486 18.63C20.6486 18.97 20.7836 19.24 21.0536 19.44C21.3236 19.64 21.6986 19.74 22.1786 19.74ZM31.7099 21.105C31.0599 21.105 30.4249 21.02 29.8049 20.85C29.1849 20.68 28.6899 20.465 28.3199 20.205L29.0399 18.78C29.3999 19.02 29.8299 19.215 30.3299 19.365C30.8399 19.505 31.3399 19.575 31.8299 19.575C32.9499 19.575 33.5099 19.28 33.5099 18.69C33.5099 18.41 33.3649 18.215 33.0749 18.105C32.7949 17.995 32.3399 17.89 31.7099 17.79C31.0499 17.69 30.5099 17.575 30.0899 17.445C29.6799 17.315 29.3199 17.09 29.0099 16.77C28.7099 16.44 28.5599 15.985 28.5599 15.405C28.5599 14.645 28.8749 14.04 29.5049 13.59C30.1449 13.13 31.0049 12.9 32.0849 12.9C32.6349 12.9 33.1849 12.965 33.7349 13.095C34.2849 13.215 34.7349 13.38 35.0849 13.59L34.3649 15.015C33.6849 14.615 32.9199 14.415 32.0699 14.415C31.5199 14.415 31.0999 14.5 30.8099 14.67C30.5299 14.83 30.3899 15.045 30.3899 15.315C30.3899 15.615 30.5399 15.83 30.8399 15.96C31.1499 16.08 31.6249 16.195 32.2649 16.305C32.9049 16.405 33.4299 16.52 33.8399 16.65C34.2499 16.78 34.5999 17 34.8899 17.31C35.1899 17.62 35.3399 18.06 35.3399 18.63C35.3399 19.38 35.0149 19.98 34.3649 20.43C33.7149 20.88 32.8299 21.105 31.7099 21.105ZM45.0581 12.99L41.3081 21.645C40.9581 22.515 40.5331 23.125 40.0331 23.475C39.5331 23.835 38.9281 24.015 38.2181 24.015C37.8181 24.015 37.4231 23.95 37.0331 23.82C36.6431 23.69 36.3231 23.51 36.0731 23.28L36.8231 21.9C37.0031 22.07 37.2131 22.205 37.4531 22.305C37.7031 22.405 37.9531 22.455 38.2031 22.455C38.5331 22.455 38.8031 22.37 39.0131 22.2C39.2331 22.03 39.4331 21.745 39.6131 21.345L39.7481 21.03L36.2531 12.99H38.2031L40.7231 18.915L43.2581 12.99H45.0581ZM23.7102 35.87L20.8152 44H18.0552L16.5252 39.575L14.9352 44H12.1752L9.2802 35.87H11.9802L13.6452 40.79L15.3702 35.87H17.8002L19.4802 40.835L21.2052 35.87H23.7102ZM33.4213 39.95C33.4213 39.97 33.4063 40.205 33.3763 40.655H27.4663C27.5863 41.075 27.8163 41.4 28.1563 41.63C28.5063 41.85 28.9413 41.96 29.4613 41.96C29.8513 41.96 30.1863 41.905 30.4663 41.795C30.7563 41.685 31.0463 41.505 31.3363 41.255L32.8363 42.815C32.0463 43.695 30.8913 44.135 29.3713 44.135C28.4213 44.135 27.5863 43.955 26.8663 43.595C26.1463 43.235 25.5863 42.735 25.1863 42.095C24.7963 41.455 24.6013 40.73 24.6013 39.92C24.6013 39.12 24.7913 38.405 25.1713 37.775C25.5613 37.135 26.0963 36.635 26.7763 36.275C27.4563 35.915 28.2213 35.735 29.0713 35.735C29.8813 35.735 30.6163 35.905 31.2763 36.245C31.9363 36.575 32.4563 37.06 32.8363 37.7C33.2263 38.33 33.4213 39.08 33.4213 39.95ZM29.0863 37.76C28.6463 37.76 28.2763 37.885 27.9763 38.135C27.6863 38.385 27.5013 38.725 27.4213 39.155H30.7513C30.6713 38.725 30.4813 38.385 30.1813 38.135C29.8913 37.885 29.5263 37.76 29.0863 37.76ZM40.6003 35.735C41.3403 35.735 42.0103 35.905 42.6103 36.245C43.2203 36.585 43.7003 37.075 44.0503 37.715C44.4103 38.345 44.5903 39.08 44.5903 39.92C44.5903 40.76 44.4103 41.5 44.0503 42.14C43.7003 42.78 43.2203 43.275 42.6103 43.625C42.0103 43.965 41.3403 44.135 40.6003 44.135C39.5303 44.135 38.7303 43.82 38.2003 43.19V44H35.4853V32.87H38.3353V36.575C38.8853 36.015 39.6403 35.735 40.6003 35.735ZM40.0003 41.87C40.5003 41.87 40.9103 41.7 41.2303 41.36C41.5503 41.01 41.7103 40.53 41.7103 39.92C41.7103 39.32 41.5503 38.85 41.2303 38.51C40.9103 38.17 40.5003 38 40.0003 38C39.5003 38 39.0903 38.17 38.7703 38.51C38.4503 38.85 38.2903 39.32 38.2903 39.92C38.2903 40.53 38.4503 41.01 38.7703 41.36C39.0903 41.7 39.5003 41.87 40.0003 41.87Z" fill="white"/>
</svg>
